<svg width="115" height="51" viewBox="0 0 115 51" fill="none" xmlns="http://www.w3.org/2000/svg">
<path opacity="0.6" d="M14.58 32.4C15.2533 32.4 15.7933 32.5733 16.2 32.92C16.6067 33.2667 16.81 33.7367 16.81 34.33C16.81 34.9233 16.6033 35.3867 16.19 35.72C15.7833 36.0467 15.2433 36.21 14.57 36.21L14.5 36.26H12.88V39H12.08V32.4H14.58ZM14.57 35.51C15.0433 35.51 15.3933 35.4133 15.62 35.22C15.8533 35.02 15.97 34.7233 15.97 34.33C15.97 33.9367 15.8533 33.6433 15.62 33.45C15.3933 33.25 15.0433 33.15 14.57 33.15H12.88V35.51H14.57ZM15.03 35.67L17.21 39H16.26L14.36 36.11L15.03 35.67ZM20.5044 39.1C20.031 39.1 19.6077 38.9967 19.2344 38.79C18.8677 38.5833 18.581 38.2867 18.3744 37.9C18.1677 37.5067 18.0644 37.04 18.0644 36.5C18.0644 35.96 18.1677 35.4967 18.3744 35.11C18.581 34.7167 18.8644 34.4167 19.2244 34.21C19.5844 34.0033 19.9944 33.9 20.4544 33.9C20.921 33.9 21.3177 34 21.6444 34.2C21.9777 34.4 22.231 34.6733 22.4044 35.02C22.5777 35.36 22.6644 35.7433 22.6644 36.17C22.6644 36.2833 22.661 36.3867 22.6544 36.48C22.6477 36.5733 22.6377 36.6567 22.6244 36.73H18.5844V36.02H22.2744L21.8644 36.1C21.8644 35.62 21.731 35.25 21.4644 34.99C21.2044 34.73 20.861 34.6 20.4344 34.6C20.1077 34.6 19.8244 34.6767 19.5844 34.83C19.351 34.9767 19.1677 35.1933 19.0344 35.48C18.9077 35.76 18.8444 36.1 18.8444 36.5C18.8444 36.8933 18.911 37.2333 19.0444 37.52C19.1777 37.8067 19.3644 38.0267 19.6044 38.18C19.851 38.3267 20.1444 38.4 20.4844 38.4C20.851 38.4 21.1477 38.33 21.3744 38.19C21.6077 38.05 21.7944 37.86 21.9344 37.62L22.5644 37.99C22.4377 38.2167 22.2744 38.4133 22.0744 38.58C21.881 38.7467 21.651 38.8767 21.3844 38.97C21.1244 39.0567 20.831 39.1 20.5044 39.1ZM27.1059 35.77C27.1059 35.3967 27.0059 35.11 26.8059 34.91C26.6059 34.7033 26.3225 34.6 25.9559 34.6C25.6092 34.6 25.3159 34.6767 25.0759 34.83C24.8359 34.9767 24.6592 35.2167 24.5459 35.55L23.8959 35.15C24.0292 34.7767 24.2759 34.4767 24.6359 34.25C24.9959 34.0167 25.4425 33.9 25.9759 33.9C26.3359 33.9 26.6625 33.9633 26.9559 34.09C27.2492 34.21 27.4792 34.3967 27.6459 34.65C27.8192 34.8967 27.9059 35.2167 27.9059 35.61V38.03C27.9059 38.27 28.0325 38.39 28.2859 38.39C28.4125 38.39 28.5359 38.3733 28.6559 38.34L28.6159 38.97C28.4825 39.0367 28.3092 39.07 28.0959 39.07C27.9025 39.07 27.7292 39.0333 27.5759 38.96C27.4225 38.8867 27.3025 38.7767 27.2159 38.63C27.1292 38.4767 27.0859 38.2867 27.0859 38.06V37.96L27.2859 37.99C27.2059 38.25 27.0692 38.4633 26.8759 38.63C26.6825 38.79 26.4659 38.91 26.2259 38.99C25.9859 39.0633 25.7492 39.1 25.5159 39.1C25.2225 39.1 24.9492 39.05 24.6959 38.95C24.4425 38.85 24.2392 38.7 24.0859 38.5C23.9392 38.2933 23.8659 38.04 23.8659 37.74C23.8659 37.3667 23.9892 37.06 24.2359 36.82C24.4892 36.5733 24.8392 36.4067 25.2859 36.32L27.2659 35.93V36.59L25.6559 36.92C25.3292 36.9867 25.0859 37.08 24.9259 37.2C24.7659 37.32 24.6859 37.4867 24.6859 37.7C24.6859 37.9067 24.7659 38.0767 24.9259 38.21C25.0925 38.3367 25.3259 38.4 25.6259 38.4C25.8192 38.4 26.0025 38.3767 26.1759 38.33C26.3559 38.2767 26.5159 38.2 26.6559 38.1C26.7959 37.9933 26.9059 37.8633 26.9859 37.71C27.0659 37.55 27.1059 37.3633 27.1059 37.15V35.77ZM30.6099 31.7V37.73C30.6099 37.9833 30.6566 38.16 30.7499 38.26C30.8433 38.3533 30.9933 38.4 31.1999 38.4C31.3333 38.4 31.4433 38.39 31.5299 38.37C31.6166 38.35 31.7333 38.3133 31.8799 38.26L31.7499 38.96C31.6433 39.0067 31.5266 39.04 31.3999 39.06C31.2733 39.0867 31.1433 39.1 31.0099 39.1C30.6033 39.1 30.2999 38.99 30.0999 38.77C29.9066 38.55 29.8099 38.2133 29.8099 37.76V31.7H30.6099ZM36.1132 39V32.4H40.7432V33.15H36.9132V35.28H39.8932V36.03H36.9132V38.25H40.8932V39H36.1132ZM44.1402 39.1C43.6535 39.1 43.2035 38.9967 42.7902 38.79C42.3835 38.5833 42.0702 38.29 41.8502 37.91L42.5302 37.42C42.6768 37.7267 42.8902 37.9667 43.1702 38.14C43.4568 38.3133 43.8002 38.4 44.2002 38.4C44.5535 38.4 44.8302 38.3333 45.0302 38.2C45.2302 38.06 45.3302 37.88 45.3302 37.66C45.3302 37.52 45.2835 37.3933 45.1902 37.28C45.1035 37.16 44.9335 37.0733 44.6802 37.02L43.4802 36.77C42.9935 36.67 42.6435 36.5033 42.4302 36.27C42.2235 36.0367 42.1202 35.7467 42.1202 35.4C42.1202 35.1267 42.1968 34.8767 42.3502 34.65C42.5102 34.4233 42.7335 34.2433 43.0202 34.11C43.3135 33.97 43.6568 33.9 44.0502 33.9C44.5435 33.9 44.9602 33.9967 45.3002 34.19C45.6402 34.3833 45.8935 34.6567 46.0602 35.01L45.3902 35.45C45.2768 35.1567 45.0935 34.9433 44.8402 34.81C44.5868 34.67 44.3235 34.6 44.0502 34.6C43.8102 34.6 43.6035 34.6333 43.4302 34.7C43.2635 34.7667 43.1335 34.86 43.0402 34.98C42.9535 35.0933 42.9102 35.2233 42.9102 35.37C42.9102 35.5167 42.9602 35.6533 43.0602 35.78C43.1602 35.9 43.3468 35.9867 43.6202 36.04L44.8702 36.3C45.3368 36.3933 45.6635 36.5467 45.8502 36.76C46.0368 36.9733 46.1302 37.2333 46.1302 37.54C46.1302 37.8533 46.0468 38.13 45.8802 38.37C45.7135 38.6033 45.4802 38.7833 45.1802 38.91C44.8802 39.0367 44.5335 39.1 44.1402 39.1ZM48.7936 32.58V37.62C48.7936 37.8667 48.8636 38.05 49.0036 38.17C49.1436 38.29 49.3236 38.35 49.5436 38.35C49.7369 38.35 49.9036 38.3167 50.0436 38.25C50.1836 38.1833 50.3103 38.0933 50.4236 37.98L50.7036 38.65C50.5503 38.79 50.3669 38.9 50.1536 38.98C49.9469 39.06 49.7069 39.1 49.4336 39.1C49.1803 39.1 48.9436 39.0567 48.7236 38.97C48.5036 38.8767 48.3269 38.7333 48.1936 38.54C48.0669 38.34 48.0003 38.08 47.9936 37.76V32.8L48.7936 32.58ZM50.6136 34V34.69H46.9936V34H50.6136ZM54.723 35.77C54.723 35.3967 54.623 35.11 54.423 34.91C54.223 34.7033 53.9397 34.6 53.573 34.6C53.2264 34.6 52.933 34.6767 52.693 34.83C52.453 34.9767 52.2764 35.2167 52.163 35.55L51.513 35.15C51.6464 34.7767 51.893 34.4767 52.253 34.25C52.613 34.0167 53.0597 33.9 53.593 33.9C53.953 33.9 54.2797 33.9633 54.573 34.09C54.8664 34.21 55.0964 34.3967 55.263 34.65C55.4364 34.8967 55.523 35.2167 55.523 35.61V38.03C55.523 38.27 55.6497 38.39 55.903 38.39C56.0297 38.39 56.153 38.3733 56.273 38.34L56.233 38.97C56.0997 39.0367 55.9264 39.07 55.713 39.07C55.5197 39.07 55.3464 39.0333 55.193 38.96C55.0397 38.8867 54.9197 38.7767 54.833 38.63C54.7464 38.4767 54.703 38.2867 54.703 38.06V37.96L54.903 37.99C54.823 38.25 54.6864 38.4633 54.493 38.63C54.2997 38.79 54.083 38.91 53.843 38.99C53.603 39.0633 53.3664 39.1 53.133 39.1C52.8397 39.1 52.5664 39.05 52.313 38.95C52.0597 38.85 51.8564 38.7 51.703 38.5C51.5564 38.2933 51.483 38.04 51.483 37.74C51.483 37.3667 51.6064 37.06 51.853 36.82C52.1064 36.5733 52.4564 36.4067 52.903 36.32L54.883 35.93V36.59L53.273 36.92C52.9464 36.9867 52.703 37.08 52.543 37.2C52.383 37.32 52.303 37.4867 52.303 37.7C52.303 37.9067 52.383 38.0767 52.543 38.21C52.7097 38.3367 52.943 38.4 53.243 38.4C53.4364 38.4 53.6197 38.3767 53.793 38.33C53.973 38.2767 54.133 38.2 54.273 38.1C54.413 37.9933 54.523 37.8633 54.603 37.71C54.683 37.55 54.723 37.3633 54.723 37.15V35.77ZM58.4518 32.58V37.62C58.4518 37.8667 58.5218 38.05 58.6618 38.17C58.8018 38.29 58.9818 38.35 59.2018 38.35C59.3951 38.35 59.5618 38.3167 59.7018 38.25C59.8418 38.1833 59.9685 38.0933 60.0818 37.98L60.3618 38.65C60.2085 38.79 60.0251 38.9 59.8118 38.98C59.6051 39.06 59.3651 39.1 59.0918 39.1C58.8385 39.1 58.6018 39.0567 58.3818 38.97C58.1618 38.8767 57.9851 38.7333 57.8518 38.54C57.7251 38.34 57.6585 38.08 57.6518 37.76V32.8L58.4518 32.58ZM60.2718 34V34.69H56.6518V34H60.2718ZM63.5513 39.1C63.0779 39.1 62.6546 38.9967 62.2813 38.79C61.9146 38.5833 61.6279 38.2867 61.4213 37.9C61.2146 37.5067 61.1113 37.04 61.1113 36.5C61.1113 35.96 61.2146 35.4967 61.4213 35.11C61.6279 34.7167 61.9113 34.4167 62.2713 34.21C62.6313 34.0033 63.0413 33.9 63.5013 33.9C63.9679 33.9 64.3646 34 64.6913 34.2C65.0246 34.4 65.2779 34.6733 65.4513 35.02C65.6246 35.36 65.7113 35.7433 65.7113 36.17C65.7113 36.2833 65.7079 36.3867 65.7013 36.48C65.6946 36.5733 65.6846 36.6567 65.6712 36.73H61.6313V36.02H65.3213L64.9113 36.1C64.9113 35.62 64.7779 35.25 64.5113 34.99C64.2513 34.73 63.9079 34.6 63.4813 34.6C63.1546 34.6 62.8713 34.6767 62.6313 34.83C62.3979 34.9767 62.2146 35.1933 62.0813 35.48C61.9546 35.76 61.8913 36.1 61.8913 36.5C61.8913 36.8933 61.9579 37.2333 62.0913 37.52C62.2246 37.8067 62.4113 38.0267 62.6513 38.18C62.8979 38.3267 63.1913 38.4 63.5313 38.4C63.8979 38.4 64.1946 38.33 64.4213 38.19C64.6546 38.05 64.8413 37.86 64.9813 37.62L65.6113 37.99C65.4846 38.2167 65.3213 38.4133 65.1213 38.58C64.9279 38.7467 64.6979 38.8767 64.4313 38.97C64.1713 39.0567 63.8779 39.1 63.5513 39.1Z" fill="white"/>
<path d="M17.174 10.4C18.902 10.4 20.342 11.006 21.494 12.218C22.658 13.43 23.24 14.924 23.24 16.7C23.24 18.476 22.658 19.97 21.494 21.182C20.342 22.394 18.902 23 17.174 23H12.17V10.4H17.174ZM17.174 20.624C18.266 20.624 19.154 20.264 19.838 19.544C20.522 18.812 20.864 17.864 20.864 16.7C20.864 15.536 20.522 14.594 19.838 13.874C19.154 13.142 18.266 12.776 17.174 12.776H14.654V20.624H17.174ZM30.9219 14H33.2439V23H30.9219V21.992C30.3579 22.832 29.4639 23.252 28.2399 23.252C27.2559 23.252 26.4399 22.922 25.7919 22.262C25.1559 21.602 24.8379 20.69 24.8379 19.526V14H27.1599V19.238C27.1599 19.838 27.3219 20.3 27.6459 20.624C27.9699 20.936 28.4019 21.092 28.9419 21.092C29.5419 21.092 30.0219 20.906 30.3819 20.534C30.7419 20.162 30.9219 19.604 30.9219 18.86V14ZM40.6086 13.748C41.8206 13.748 42.8526 14.21 43.7046 15.134C44.5686 16.046 45.0006 17.168 45.0006 18.5C45.0006 19.832 44.5686 20.96 43.7046 21.884C42.8526 22.796 41.8206 23.252 40.6086 23.252C39.3486 23.252 38.3766 22.814 37.6926 21.938V23H35.3706V10.4H37.6926V15.062C38.3766 14.186 39.3486 13.748 40.6086 13.748ZM38.3946 20.336C38.8626 20.804 39.4566 21.038 40.1766 21.038C40.8966 21.038 41.4906 20.804 41.9586 20.336C42.4386 19.856 42.6786 19.244 42.6786 18.5C42.6786 17.756 42.4386 17.15 41.9586 16.682C41.4906 16.202 40.8966 15.962 40.1766 15.962C39.4566 15.962 38.8626 16.202 38.3946 16.682C37.9266 17.15 37.6926 17.756 37.6926 18.5C37.6926 19.244 37.9266 19.856 38.3946 20.336ZM53.4782 14H55.8002V23H53.4782V21.938C52.7822 22.814 51.8042 23.252 50.5442 23.252C49.3442 23.252 48.3122 22.796 47.4482 21.884C46.5962 20.96 46.1702 19.832 46.1702 18.5C46.1702 17.168 46.5962 16.046 47.4482 15.134C48.3122 14.21 49.3442 13.748 50.5442 13.748C51.8042 13.748 52.7822 14.186 53.4782 15.062V14ZM49.1942 20.336C49.6622 20.804 50.2562 21.038 50.9762 21.038C51.6962 21.038 52.2902 20.804 52.7582 20.336C53.2382 19.856 53.4782 19.244 53.4782 18.5C53.4782 17.756 53.2382 17.15 52.7582 16.682C52.2902 16.202 51.6962 15.962 50.9762 15.962C50.2562 15.962 49.6622 16.202 49.1942 16.682C48.7262 17.15 48.4922 17.756 48.4922 18.5C48.4922 19.244 48.7262 19.856 49.1942 20.336ZM59.0578 12.92C58.6738 12.92 58.3378 12.782 58.0498 12.506C57.7738 12.218 57.6358 11.882 57.6358 11.498C57.6358 11.114 57.7738 10.778 58.0498 10.49C58.3378 10.202 58.6738 10.058 59.0578 10.058C59.4538 10.058 59.7898 10.202 60.0658 10.49C60.3538 10.778 60.4978 11.114 60.4978 11.498C60.4978 11.882 60.3538 12.218 60.0658 12.506C59.7898 12.782 59.4538 12.92 59.0578 12.92ZM57.9058 23V14H60.2278V23H57.9058ZM69.373 23L66.835 18.626H64.945V23H62.461V10.4H67.501C68.665 10.4 69.655 10.808 70.471 11.624C71.287 12.44 71.695 13.424 71.695 14.576C71.695 15.356 71.473 16.082 71.029 16.754C70.585 17.414 69.997 17.912 69.265 18.248L72.055 23H69.373ZM64.945 12.722V16.448H67.501C67.969 16.448 68.371 16.268 68.707 15.908C69.043 15.536 69.211 15.092 69.211 14.576C69.211 14.06 69.043 13.622 68.707 13.262C68.371 12.902 67.969 12.722 67.501 12.722H64.945ZM74.9146 19.454C75.2266 20.582 76.0726 21.146 77.4526 21.146C78.3406 21.146 79.0126 20.846 79.4686 20.246L81.3406 21.326C80.4526 22.61 79.1446 23.252 77.4166 23.252C75.9286 23.252 74.7346 22.802 73.8346 21.902C72.9346 21.002 72.4846 19.868 72.4846 18.5C72.4846 17.144 72.9286 16.016 73.8166 15.116C74.7046 14.204 75.8446 13.748 77.2366 13.748C78.5566 13.748 79.6426 14.204 80.4946 15.116C81.3586 16.028 81.7906 17.156 81.7906 18.5C81.7906 18.8 81.7606 19.118 81.7006 19.454H74.9146ZM74.8786 17.654H79.4686C79.3366 17.042 79.0606 16.586 78.6406 16.286C78.2326 15.986 77.7646 15.836 77.2366 15.836C76.6126 15.836 76.0966 15.998 75.6886 16.322C75.2806 16.634 75.0106 17.078 74.8786 17.654ZM90.1813 14H92.5033V23H90.1813V21.938C89.4853 22.814 88.5073 23.252 87.2473 23.252C86.0473 23.252 85.0153 22.796 84.1513 21.884C83.2993 20.96 82.8733 19.832 82.8733 18.5C82.8733 17.168 83.2993 16.046 84.1513 15.134C85.0153 14.21 86.0473 13.748 87.2473 13.748C88.5073 13.748 89.4853 14.186 90.1813 15.062V14ZM85.8973 20.336C86.3653 20.804 86.9593 21.038 87.6793 21.038C88.3993 21.038 88.9933 20.804 89.4613 20.336C89.9413 19.856 90.1813 19.244 90.1813 18.5C90.1813 17.756 89.9413 17.15 89.4613 16.682C88.9933 16.202 88.3993 15.962 87.6793 15.962C86.9593 15.962 86.3653 16.202 85.8973 16.682C85.4293 17.15 85.1953 17.756 85.1953 18.5C85.1953 19.244 85.4293 19.856 85.8973 20.336ZM94.6089 23V9.86H96.9309V23H94.6089ZM104.204 16.232H102.17V19.976C102.17 20.288 102.248 20.516 102.404 20.66C102.56 20.804 102.788 20.888 103.088 20.912C103.388 20.924 103.76 20.918 104.204 20.894V23C102.608 23.18 101.48 23.03 100.82 22.55C100.172 22.07 99.8481 21.212 99.8481 19.976V16.232H98.2821V14H99.8481V12.182L102.17 11.48V14H104.204V16.232ZM111.903 14H114.387L111.111 23C110.643 24.296 110.019 25.232 109.239 25.808C108.471 26.396 107.511 26.66 106.359 26.6V24.44C106.983 24.452 107.475 24.32 107.835 24.044C108.207 23.768 108.501 23.324 108.717 22.712L105.027 14H107.565L109.905 20.048L111.903 14Z" fill="white"/>
<path d="M31 1L1 1V25.5V50H31" stroke="#FCD54C" stroke-width="2"/>
</svg>
