<svg width="180" height="61" viewBox="0 0 180 61" fill="none" xmlns="http://www.w3.org/2000/svg">
<path opacity="0.6" d="M14.58 45.4C15.2533 45.4 15.7933 45.5733 16.2 45.92C16.6067 46.2667 16.81 46.7367 16.81 47.33C16.81 47.9233 16.6033 48.3867 16.19 48.72C15.7833 49.0467 15.2433 49.21 14.57 49.21L14.5 49.26H12.88V52H12.08V45.4H14.58ZM14.57 48.51C15.0433 48.51 15.3933 48.4133 15.62 48.22C15.8533 48.02 15.97 47.7233 15.97 47.33C15.97 46.9367 15.8533 46.6433 15.62 46.45C15.3933 46.25 15.0433 46.15 14.57 46.15H12.88V48.51H14.57ZM15.03 48.67L17.21 52H16.26L14.36 49.11L15.03 48.67ZM20.5044 52.1C20.031 52.1 19.6077 51.9967 19.2344 51.79C18.8677 51.5833 18.581 51.2867 18.3744 50.9C18.1677 50.5067 18.0644 50.04 18.0644 49.5C18.0644 48.96 18.1677 48.4967 18.3744 48.11C18.581 47.7167 18.8644 47.4167 19.2244 47.21C19.5844 47.0033 19.9944 46.9 20.4544 46.9C20.921 46.9 21.3177 47 21.6444 47.2C21.9777 47.4 22.231 47.6733 22.4044 48.02C22.5777 48.36 22.6644 48.7433 22.6644 49.17C22.6644 49.2833 22.661 49.3867 22.6544 49.48C22.6477 49.5733 22.6377 49.6567 22.6244 49.73H18.5844V49.02H22.2744L21.8644 49.1C21.8644 48.62 21.731 48.25 21.4644 47.99C21.2044 47.73 20.861 47.6 20.4344 47.6C20.1077 47.6 19.8244 47.6767 19.5844 47.83C19.351 47.9767 19.1677 48.1933 19.0344 48.48C18.9077 48.76 18.8444 49.1 18.8444 49.5C18.8444 49.8933 18.911 50.2333 19.0444 50.52C19.1777 50.8067 19.3644 51.0267 19.6044 51.18C19.851 51.3267 20.1444 51.4 20.4844 51.4C20.851 51.4 21.1477 51.33 21.3744 51.19C21.6077 51.05 21.7944 50.86 21.9344 50.62L22.5644 50.99C22.4377 51.2167 22.2744 51.4133 22.0744 51.58C21.881 51.7467 21.651 51.8767 21.3844 51.97C21.1244 52.0567 20.831 52.1 20.5044 52.1ZM27.1059 48.77C27.1059 48.3967 27.0059 48.11 26.8059 47.91C26.6059 47.7033 26.3225 47.6 25.9559 47.6C25.6092 47.6 25.3159 47.6767 25.0759 47.83C24.8359 47.9767 24.6592 48.2167 24.5459 48.55L23.8959 48.15C24.0292 47.7767 24.2759 47.4767 24.6359 47.25C24.9959 47.0167 25.4425 46.9 25.9759 46.9C26.3359 46.9 26.6625 46.9633 26.9559 47.09C27.2492 47.21 27.4792 47.3967 27.6459 47.65C27.8192 47.8967 27.9059 48.2167 27.9059 48.61V51.03C27.9059 51.27 28.0325 51.39 28.2859 51.39C28.4125 51.39 28.5359 51.3733 28.6559 51.34L28.6159 51.97C28.4825 52.0367 28.3092 52.07 28.0959 52.07C27.9025 52.07 27.7292 52.0333 27.5759 51.96C27.4225 51.8867 27.3025 51.7767 27.2159 51.63C27.1292 51.4767 27.0859 51.2867 27.0859 51.06V50.96L27.2859 50.99C27.2059 51.25 27.0692 51.4633 26.8759 51.63C26.6825 51.79 26.4659 51.91 26.2259 51.99C25.9859 52.0633 25.7492 52.1 25.5159 52.1C25.2225 52.1 24.9492 52.05 24.6959 51.95C24.4425 51.85 24.2392 51.7 24.0859 51.5C23.9392 51.2933 23.8659 51.04 23.8659 50.74C23.8659 50.3667 23.9892 50.06 24.2359 49.82C24.4892 49.5733 24.8392 49.4067 25.2859 49.32L27.2659 48.93V49.59L25.6559 49.92C25.3292 49.9867 25.0859 50.08 24.9259 50.2C24.7659 50.32 24.6859 50.4867 24.6859 50.7C24.6859 50.9067 24.7659 51.0767 24.9259 51.21C25.0925 51.3367 25.3259 51.4 25.6259 51.4C25.8192 51.4 26.0025 51.3767 26.1759 51.33C26.3559 51.2767 26.5159 51.2 26.6559 51.1C26.7959 50.9933 26.9059 50.8633 26.9859 50.71C27.0659 50.55 27.1059 50.3633 27.1059 50.15V48.77ZM30.6099 44.7V50.73C30.6099 50.9833 30.6566 51.16 30.7499 51.26C30.8433 51.3533 30.9933 51.4 31.1999 51.4C31.3333 51.4 31.4433 51.39 31.5299 51.37C31.6166 51.35 31.7333 51.3133 31.8799 51.26L31.7499 51.96C31.6433 52.0067 31.5266 52.04 31.3999 52.06C31.2733 52.0867 31.1433 52.1 31.0099 52.1C30.6033 52.1 30.2999 51.99 30.0999 51.77C29.9066 51.55 29.8099 51.2133 29.8099 50.76V44.7H30.6099ZM36.1132 52V45.4H40.7432V46.15H36.9132V48.28H39.8932V49.03H36.9132V51.25H40.8932V52H36.1132ZM44.1402 52.1C43.6535 52.1 43.2035 51.9967 42.7902 51.79C42.3835 51.5833 42.0702 51.29 41.8502 50.91L42.5302 50.42C42.6768 50.7267 42.8902 50.9667 43.1702 51.14C43.4568 51.3133 43.8002 51.4 44.2002 51.4C44.5535 51.4 44.8302 51.3333 45.0302 51.2C45.2302 51.06 45.3302 50.88 45.3302 50.66C45.3302 50.52 45.2835 50.3933 45.1902 50.28C45.1035 50.16 44.9335 50.0733 44.6802 50.02L43.4802 49.77C42.9935 49.67 42.6435 49.5033 42.4302 49.27C42.2235 49.0367 42.1202 48.7467 42.1202 48.4C42.1202 48.1267 42.1968 47.8767 42.3502 47.65C42.5102 47.4233 42.7335 47.2433 43.0202 47.11C43.3135 46.97 43.6568 46.9 44.0502 46.9C44.5435 46.9 44.9602 46.9967 45.3002 47.19C45.6402 47.3833 45.8935 47.6567 46.0602 48.01L45.3902 48.45C45.2768 48.1567 45.0935 47.9433 44.8402 47.81C44.5868 47.67 44.3235 47.6 44.0502 47.6C43.8102 47.6 43.6035 47.6333 43.4302 47.7C43.2635 47.7667 43.1335 47.86 43.0402 47.98C42.9535 48.0933 42.9102 48.2233 42.9102 48.37C42.9102 48.5167 42.9602 48.6533 43.0602 48.78C43.1602 48.9 43.3468 48.9867 43.6202 49.04L44.8702 49.3C45.3368 49.3933 45.6635 49.5467 45.8502 49.76C46.0368 49.9733 46.1302 50.2333 46.1302 50.54C46.1302 50.8533 46.0468 51.13 45.8802 51.37C45.7135 51.6033 45.4802 51.7833 45.1802 51.91C44.8802 52.0367 44.5335 52.1 44.1402 52.1ZM48.7936 45.58V50.62C48.7936 50.8667 48.8636 51.05 49.0036 51.17C49.1436 51.29 49.3236 51.35 49.5436 51.35C49.7369 51.35 49.9036 51.3167 50.0436 51.25C50.1836 51.1833 50.3103 51.0933 50.4236 50.98L50.7036 51.65C50.5503 51.79 50.3669 51.9 50.1536 51.98C49.9469 52.06 49.7069 52.1 49.4336 52.1C49.1803 52.1 48.9436 52.0567 48.7236 51.97C48.5036 51.8767 48.3269 51.7333 48.1936 51.54C48.0669 51.34 48.0003 51.08 47.9936 50.76V45.8L48.7936 45.58ZM50.6136 47V47.69H46.9936V47H50.6136ZM54.723 48.77C54.723 48.3967 54.623 48.11 54.423 47.91C54.223 47.7033 53.9397 47.6 53.573 47.6C53.2264 47.6 52.933 47.6767 52.693 47.83C52.453 47.9767 52.2764 48.2167 52.163 48.55L51.513 48.15C51.6464 47.7767 51.893 47.4767 52.253 47.25C52.613 47.0167 53.0597 46.9 53.593 46.9C53.953 46.9 54.2797 46.9633 54.573 47.09C54.8664 47.21 55.0964 47.3967 55.263 47.65C55.4364 47.8967 55.523 48.2167 55.523 48.61V51.03C55.523 51.27 55.6497 51.39 55.903 51.39C56.0297 51.39 56.153 51.3733 56.273 51.34L56.233 51.97C56.0997 52.0367 55.9264 52.07 55.713 52.07C55.5197 52.07 55.3464 52.0333 55.193 51.96C55.0397 51.8867 54.9197 51.7767 54.833 51.63C54.7464 51.4767 54.703 51.2867 54.703 51.06V50.96L54.903 50.99C54.823 51.25 54.6864 51.4633 54.493 51.63C54.2997 51.79 54.083 51.91 53.843 51.99C53.603 52.0633 53.3664 52.1 53.133 52.1C52.8397 52.1 52.5664 52.05 52.313 51.95C52.0597 51.85 51.8564 51.7 51.703 51.5C51.5564 51.2933 51.483 51.04 51.483 50.74C51.483 50.3667 51.6064 50.06 51.853 49.82C52.1064 49.5733 52.4564 49.4067 52.903 49.32L54.883 48.93V49.59L53.273 49.92C52.9464 49.9867 52.703 50.08 52.543 50.2C52.383 50.32 52.303 50.4867 52.303 50.7C52.303 50.9067 52.383 51.0767 52.543 51.21C52.7097 51.3367 52.943 51.4 53.243 51.4C53.4364 51.4 53.6197 51.3767 53.793 51.33C53.973 51.2767 54.133 51.2 54.273 51.1C54.413 50.9933 54.523 50.8633 54.603 50.71C54.683 50.55 54.723 50.3633 54.723 50.15V48.77ZM58.4518 45.58V50.62C58.4518 50.8667 58.5218 51.05 58.6618 51.17C58.8018 51.29 58.9818 51.35 59.2018 51.35C59.3951 51.35 59.5618 51.3167 59.7018 51.25C59.8418 51.1833 59.9685 51.0933 60.0818 50.98L60.3618 51.65C60.2085 51.79 60.0251 51.9 59.8118 51.98C59.6051 52.06 59.3651 52.1 59.0918 52.1C58.8385 52.1 58.6018 52.0567 58.3818 51.97C58.1618 51.8767 57.9851 51.7333 57.8518 51.54C57.7251 51.34 57.6585 51.08 57.6518 50.76V45.8L58.4518 45.58ZM60.2718 47V47.69H56.6518V47H60.2718ZM63.5513 52.1C63.0779 52.1 62.6546 51.9967 62.2813 51.79C61.9146 51.5833 61.6279 51.2867 61.4213 50.9C61.2146 50.5067 61.1113 50.04 61.1113 49.5C61.1113 48.96 61.2146 48.4967 61.4213 48.11C61.6279 47.7167 61.9113 47.4167 62.2713 47.21C62.6313 47.0033 63.0413 46.9 63.5013 46.9C63.9679 46.9 64.3646 47 64.6913 47.2C65.0246 47.4 65.2779 47.6733 65.4513 48.02C65.6246 48.36 65.7113 48.7433 65.7113 49.17C65.7113 49.2833 65.7079 49.3867 65.7013 49.48C65.6946 49.5733 65.6846 49.6567 65.6712 49.73H61.6313V49.02H65.3213L64.9113 49.1C64.9113 48.62 64.7779 48.25 64.5113 47.99C64.2513 47.73 63.9079 47.6 63.4813 47.6C63.1546 47.6 62.8713 47.6767 62.6313 47.83C62.3979 47.9767 62.2146 48.1933 62.0813 48.48C61.9546 48.76 61.8913 49.1 61.8913 49.5C61.8913 49.8933 61.9579 50.2333 62.0913 50.52C62.2246 50.8067 62.4113 51.0267 62.6513 51.18C62.8979 51.3267 63.1913 51.4 63.5313 51.4C63.8979 51.4 64.1946 51.33 64.4213 51.19C64.6546 51.05 64.8413 50.86 64.9813 50.62L65.6113 50.99C65.4846 51.2167 65.3213 51.4133 65.1213 51.58C64.9279 51.7467 64.6979 51.8767 64.4313 51.97C64.1713 52.0567 63.8779 52.1 63.5513 52.1Z" fill="white"/>
<path d="M17.86 16C19.78 16 21.38 16.6733 22.66 18.02C23.9533 19.3667 24.6 21.0267 24.6 23C24.6 24.9733 23.9533 26.6333 22.66 27.98C21.38 29.3267 19.78 30 17.86 30H12.3V16H17.86ZM17.86 27.36C19.0733 27.36 20.06 26.96 20.82 26.16C21.58 25.3467 21.96 24.2933 21.96 23C21.96 21.7067 21.58 20.66 20.82 19.86C20.06 19.0467 19.0733 18.64 17.86 18.64H15.06V27.36H17.86ZM33.1355 20H35.7155V30H33.1355V28.88C32.5088 29.8133 31.5155 30.28 30.1555 30.28C29.0621 30.28 28.1555 29.9133 27.4355 29.18C26.7288 28.4467 26.3755 27.4333 26.3755 26.14V20H28.9555V25.82C28.9555 26.4867 29.1355 27 29.4955 27.36C29.8555 27.7067 30.3355 27.88 30.9355 27.88C31.6021 27.88 32.1355 27.6733 32.5355 27.26C32.9355 26.8467 33.1355 26.2267 33.1355 25.4V20ZM43.8984 19.72C45.2451 19.72 46.3918 20.2333 47.3384 21.26C48.2984 22.2733 48.7784 23.52 48.7784 25C48.7784 26.48 48.2984 27.7333 47.3384 28.76C46.3918 29.7733 45.2451 30.28 43.8984 30.28C42.4984 30.28 41.4184 29.7933 40.6584 28.82V30H38.0784V16H40.6584V21.18C41.4184 20.2067 42.4984 19.72 43.8984 19.72ZM41.4384 27.04C41.9584 27.56 42.6184 27.82 43.4184 27.82C44.2184 27.82 44.8784 27.56 45.3984 27.04C45.9318 26.5067 46.1984 25.8267 46.1984 25C46.1984 24.1733 45.9318 23.5 45.3984 22.98C44.8784 22.4467 44.2184 22.18 43.4184 22.18C42.6184 22.18 41.9584 22.4467 41.4384 22.98C40.9184 23.5 40.6584 24.1733 40.6584 25C40.6584 25.8267 40.9184 26.5067 41.4384 27.04ZM58.198 20H60.778V30H58.198V28.82C57.4246 29.7933 56.338 30.28 54.938 30.28C53.6046 30.28 52.458 29.7733 51.498 28.76C50.5513 27.7333 50.078 26.48 50.078 25C50.078 23.52 50.5513 22.2733 51.498 21.26C52.458 20.2333 53.6046 19.72 54.938 19.72C56.338 19.72 57.4246 20.2067 58.198 21.18V20ZM53.438 27.04C53.958 27.56 54.618 27.82 55.418 27.82C56.218 27.82 56.878 27.56 57.398 27.04C57.9313 26.5067 58.198 25.8267 58.198 25C58.198 24.1733 57.9313 23.5 57.398 22.98C56.878 22.4467 56.218 22.18 55.418 22.18C54.618 22.18 53.958 22.4467 53.438 22.98C52.918 23.5 52.658 24.1733 52.658 25C52.658 25.8267 52.918 26.5067 53.438 27.04ZM64.3975 18.8C63.9708 18.8 63.5975 18.6467 63.2775 18.34C62.9708 18.02 62.8175 17.6467 62.8175 17.22C62.8175 16.7933 62.9708 16.42 63.2775 16.1C63.5975 15.78 63.9708 15.62 64.3975 15.62C64.8375 15.62 65.2108 15.78 65.5175 16.1C65.8375 16.42 65.9975 16.7933 65.9975 17.22C65.9975 17.6467 65.8375 18.02 65.5175 18.34C65.2108 18.6467 64.8375 18.8 64.3975 18.8ZM63.1175 30V20H65.6975V30H63.1175ZM75.8589 30L73.0389 25.14H70.9389V30H68.1789V16H73.7789C75.0722 16 76.1722 16.4533 77.0789 17.36C77.9856 18.2667 78.4389 19.36 78.4389 20.64C78.4389 21.5067 78.1922 22.3133 77.6989 23.06C77.2056 23.7933 76.5522 24.3467 75.7389 24.72L78.8389 30H75.8589ZM70.9389 18.58V22.72H73.7789C74.2989 22.72 74.7456 22.52 75.1189 22.12C75.4922 21.7067 75.6789 21.2133 75.6789 20.64C75.6789 20.0667 75.4922 19.58 75.1189 19.18C74.7456 18.78 74.2989 18.58 73.7789 18.58H70.9389ZM82.0163 26.06C82.3629 27.3133 83.3029 27.94 84.8363 27.94C85.8229 27.94 86.5696 27.6067 87.0763 26.94L89.1563 28.14C88.1696 29.5667 86.7163 30.28 84.7963 30.28C83.1429 30.28 81.8163 29.78 80.8163 28.78C79.8163 27.78 79.3162 26.52 79.3162 25C79.3162 23.4933 79.8096 22.24 80.7963 21.24C81.7829 20.2267 83.0496 19.72 84.5963 19.72C86.0629 19.72 87.2696 20.2267 88.2163 21.24C89.1763 22.2533 89.6563 23.5067 89.6563 25C89.6563 25.3333 89.6229 25.6867 89.5563 26.06H82.0163ZM81.9763 24.06H87.0763C86.9296 23.38 86.6229 22.8733 86.1563 22.54C85.7029 22.2067 85.1829 22.04 84.5963 22.04C83.9029 22.04 83.3296 22.22 82.8763 22.58C82.4229 22.9267 82.1229 23.42 81.9763 24.06ZM98.9792 20H101.559V30H98.9792V28.82C98.2059 29.7933 97.1192 30.28 95.7192 30.28C94.3859 30.28 93.2392 29.7733 92.2792 28.76C91.3326 27.7333 90.8592 26.48 90.8592 25C90.8592 23.52 91.3326 22.2733 92.2792 21.26C93.2392 20.2333 94.3859 19.72 95.7192 19.72C97.1192 19.72 98.2059 20.2067 98.9792 21.18V20ZM94.2192 27.04C94.7392 27.56 95.3992 27.82 96.1992 27.82C96.9992 27.82 97.6592 27.56 98.1792 27.04C98.7126 26.5067 98.9792 25.8267 98.9792 25C98.9792 24.1733 98.7126 23.5 98.1792 22.98C97.6592 22.4467 96.9992 22.18 96.1992 22.18C95.3992 22.18 94.7392 22.4467 94.2192 22.98C93.6992 23.5 93.4392 24.1733 93.4392 25C93.4392 25.8267 93.6992 26.5067 94.2192 27.04ZM103.899 30V15.4H106.479V30H103.899ZM114.56 22.48H112.3V26.64C112.3 26.9867 112.387 27.24 112.56 27.4C112.733 27.56 112.987 27.6533 113.32 27.68C113.653 27.6933 114.067 27.6867 114.56 27.66V30C112.787 30.2 111.533 30.0333 110.8 29.5C110.08 28.9667 109.72 28.0133 109.72 26.64V22.48H107.98V20H109.72V17.98L112.3 17.2V20H114.56V22.48ZM123.114 20H125.874L122.234 30C121.714 31.44 121.021 32.48 120.154 33.12C119.301 33.7733 118.234 34.0667 116.954 34V31.6C117.647 31.6133 118.194 31.4667 118.594 31.16C119.007 30.8533 119.334 30.36 119.574 29.68L115.474 20H118.294L120.894 26.72L123.114 20Z" fill="white"/>
<path d="M37 1L1 1V30.5V60H37" stroke="#FCD54C" stroke-width="2"/>
</svg>
